<svg width="155" height="16" viewBox="0 0 155 16" fill="none" xmlns="http://www.w3.org/2000/svg">
<path d="M13.8026 4.83977C13.8026 5.41205 13.7319 5.92324 13.5907 6.37335C13.4494 6.82345 13.2568 7.22212 13.0128 7.56935C12.7752 7.91014 12.4991 8.20271 12.1844 8.44705C11.8698 8.6914 11.5391 8.89395 11.1923 9.0547C10.852 9.20902 10.5052 9.32155 10.1521 9.39228C9.80532 9.46301 9.47783 9.49838 9.16961 9.49838L14.3998 14.022H10.5277L5.3072 9.49838H3.50603V6.99064H9.16961C9.48425 6.96492 9.77 6.90062 10.0269 6.79773C10.2901 6.68842 10.5149 6.54374 10.7011 6.3637C10.8937 6.18366 11.0414 5.96825 11.1442 5.71748C11.2469 5.46027 11.2983 5.1677 11.2983 4.83977V3.25796C11.2983 3.1165 11.279 3.01041 11.2405 2.93967C11.2084 2.86251 11.1634 2.80786 11.1056 2.77571C11.0543 2.73713 10.9965 2.71462 10.9323 2.70819C10.8745 2.70176 10.8199 2.69855 10.7685 2.69855H2.50431V14.022H0V1.45432C0 1.28071 0.0321065 1.11674 0.0963194 0.962418C0.160532 0.808096 0.24722 0.673064 0.356382 0.557322C0.471965 0.44158 0.606812 0.351559 0.760924 0.287258C0.915035 0.222957 1.08199 0.190806 1.26178 0.190806H10.7685C11.3272 0.190806 11.7991 0.293688 12.1844 0.499451C12.5697 0.698784 12.8811 0.952773 13.1187 1.26142C13.3627 1.56363 13.5361 1.89157 13.6388 2.24522C13.748 2.59888 13.8026 2.93003 13.8026 3.23867V4.83977Z" fill="#1D1D1D"/>
<path d="M29.8687 14.022H27.3644V10.6269H18.5608V14.022H16.0564V7.10638C16.0564 6.09685 16.2298 5.1677 16.5766 4.31893C16.9233 3.47016 17.4049 2.74034 18.0214 2.12948C18.6378 1.51862 19.3666 1.04279 20.2078 0.701999C21.049 0.361204 21.9673 0.190806 22.9626 0.190806H28.6069C28.7802 0.190806 28.944 0.222957 29.0981 0.287258C29.2522 0.351559 29.3871 0.44158 29.5026 0.557322C29.6182 0.673064 29.7081 0.808096 29.7723 0.962418C29.8366 1.11674 29.8687 1.28071 29.8687 1.45432V14.022ZM18.5608 8.11912H27.3644V2.69855H22.9626C22.8855 2.69855 22.7218 2.71141 22.4713 2.73713C22.2273 2.75642 21.9416 2.81107 21.6141 2.90109C21.293 2.99111 20.9527 3.12936 20.5931 3.31583C20.2335 3.50231 19.9028 3.75951 19.601 4.08745C19.2992 4.41538 19.0488 4.82691 18.8497 5.32203C18.6571 5.81071 18.5608 6.4055 18.5608 7.10638V8.11912Z" fill="#1D1D1D"/>
<path d="M46.5897 12.9513C46.5897 13.1314 46.5544 13.2986 46.4838 13.4529C46.4195 13.6072 46.3297 13.7422 46.2141 13.858C46.1049 13.9673 45.9733 14.0541 45.8192 14.1184C45.665 14.1827 45.5013 14.2149 45.3279 14.2149C45.1738 14.2149 45.0165 14.1859 44.856 14.128C44.7019 14.0702 44.5638 13.9769 44.4418 13.8483L35.2914 4.28035V14.022H32.7871V1.26142C32.7871 1.00421 32.8578 0.77273 32.999 0.566967C33.1467 0.354774 33.3329 0.197236 33.5577 0.0943547C33.7953 -0.00209677 34.0393 -0.0246021 34.2897 0.0268387C34.5401 0.0718494 34.7553 0.187591 34.9351 0.374064L44.0854 9.93241V0.190806H46.5897V12.9513Z" fill="#1D1D1D"/>
<path d="M63.985 14.022H60.4308L54.7961 8.36989H53.0335V5.84286H54.7961L60.4308 0.190806H63.985L56.8863 7.10638L63.985 14.022ZM52.0318 14.022H49.5275V0.190806H52.0318V14.022Z" fill="#1D1D1D"/>
<path d="M78.8278 9.9517C78.8278 10.4468 78.7636 10.8937 78.6352 11.2924C78.5132 11.6846 78.3494 12.0318 78.144 12.334C77.9385 12.6363 77.6977 12.8935 77.4216 13.1057C77.1454 13.3179 76.8597 13.4915 76.5643 13.6265C76.2689 13.7615 75.9671 13.8612 75.6589 13.9255C75.3571 13.9898 75.0714 14.022 74.8017 14.022H65.1408V11.5142H74.8017C75.2833 11.5142 75.6557 11.3727 75.919 11.0898C76.1887 10.8069 76.3235 10.4275 76.3235 9.9517C76.3235 9.72021 76.2882 9.50802 76.2176 9.31512C76.1469 9.12221 76.0442 8.95503 75.9093 8.81357C75.7809 8.67211 75.6204 8.5628 75.4277 8.48563C75.2415 8.40847 75.0328 8.36989 74.8017 8.36989H69.0418C68.6372 8.36989 68.2006 8.29916 67.7318 8.1577C67.2631 8.00981 66.8264 7.77511 66.4219 7.4536C66.0238 7.1321 65.6899 6.71093 65.4202 6.19009C65.1569 5.66925 65.0253 5.03267 65.0253 4.28035C65.0253 3.52803 65.1569 2.89466 65.4202 2.38026C65.6899 1.85942 66.0238 1.43825 66.4219 1.11674C66.8264 0.788805 67.2631 0.554107 67.7318 0.412645C68.2006 0.264752 68.6372 0.190806 69.0418 0.190806H77.566V2.69855H69.0418C68.5666 2.69855 68.1942 2.84322 67.9245 3.13258C67.6612 3.42193 67.5296 3.80452 67.5296 4.28035C67.5296 4.76261 67.6612 5.1452 67.9245 5.42812C68.1942 5.70462 68.5666 5.84286 69.0418 5.84286H74.8017H74.8209C75.0906 5.84929 75.3764 5.88787 75.6782 5.95861C75.98 6.02291 76.2786 6.12579 76.574 6.26725C76.8758 6.40871 77.1615 6.58876 77.4312 6.80738C77.7009 7.01957 77.9385 7.27678 78.144 7.57899C78.3559 7.88121 78.5228 8.22843 78.6448 8.62067C78.7668 9.0129 78.8278 9.45658 78.8278 9.9517Z" fill="#1D1D1D"/>
<path d="M86.6192 12.588C86.6192 12.7474 86.5865 12.8979 86.5211 13.0396C86.4617 13.1754 86.3785 13.2964 86.2716 13.4027C86.1706 13.5031 86.0488 13.5827 85.9062 13.6418C85.7695 13.7008 85.6239 13.7303 85.4694 13.7303C85.309 13.7303 85.1575 13.7008 85.0149 13.6418C84.8782 13.5827 84.7564 13.5031 84.6495 13.4027C84.5485 13.2964 84.4682 13.1754 84.4088 13.0396C84.3494 12.8979 84.3197 12.7474 84.3197 12.588C84.3197 12.4345 84.3494 12.2899 84.4088 12.1541C84.4682 12.0124 84.5485 11.8914 84.6495 11.791C84.7564 11.6848 84.8782 11.6021 85.0149 11.5431C85.1575 11.4782 85.309 11.4457 85.4694 11.4457C85.6239 11.4457 85.7695 11.4782 85.9062 11.5431C86.0488 11.6021 86.1706 11.6848 86.2716 11.791C86.3785 11.8914 86.4617 12.0124 86.5211 12.1541C86.5865 12.2899 86.6192 12.4345 86.6192 12.588Z" fill="#3FA6FA"/>
<path d="M99.8754 11.4996C99.8754 11.7748 99.8403 12.0232 99.77 12.245C99.6998 12.4626 99.6068 12.6556 99.491 12.824C99.3753 12.9883 99.2409 13.13 99.088 13.2491C98.9351 13.3641 98.7739 13.4585 98.6044 13.5324C98.4391 13.6064 98.2717 13.6618 98.1022 13.6988C97.9327 13.7316 97.7715 13.748 97.6186 13.748H94.7107V12.1464H97.6186C97.8335 12.1464 97.9947 12.091 98.1022 11.9801C98.2097 11.8692 98.2634 11.709 98.2634 11.4996V9.34355C98.2634 9.12179 98.2076 8.95751 98.096 8.85074C97.9885 8.74396 97.8294 8.69058 97.6186 8.69058H94.7231C94.5041 8.69058 94.3387 8.74602 94.2271 8.8569C94.1155 8.96368 94.0597 9.12179 94.0597 9.33123V15.8302H92.4477V9.33123C92.4477 9.05608 92.4828 8.80967 92.5531 8.59201C92.6233 8.37436 92.7163 8.18339 92.8321 8.01912C92.952 7.85074 93.0884 7.70906 93.2413 7.59407C93.3942 7.47498 93.5534 7.37847 93.7187 7.30455C93.8882 7.23062 94.0576 7.17724 94.2271 7.14438C94.4007 7.10742 94.5619 7.08894 94.7107 7.08894H97.6186C97.8955 7.08894 98.1435 7.12385 98.3626 7.19366C98.5817 7.26348 98.7739 7.35588 98.9392 7.47087C99.1087 7.58586 99.2513 7.71933 99.367 7.87128C99.4869 8.02323 99.584 8.18339 99.6584 8.35177C99.7328 8.51604 99.7866 8.68236 99.8196 8.85074C99.8568 9.01912 99.8754 9.17928 99.8754 9.33123V11.4996Z" fill="#3FA6FA"/>
<path d="M108.543 11.4996C108.543 11.7748 108.508 12.0232 108.438 12.245C108.368 12.4626 108.275 12.6556 108.159 12.824C108.043 12.9883 107.909 13.13 107.756 13.2491C107.603 13.3641 107.442 13.4585 107.272 13.5324C107.107 13.6064 106.937 13.6618 106.764 13.6988C106.594 13.7316 106.433 13.748 106.28 13.748H103.372C103.149 13.748 102.905 13.709 102.641 13.631C102.376 13.553 102.13 13.4257 101.903 13.2491C101.68 13.0684 101.492 12.8363 101.339 12.553C101.19 12.2655 101.115 11.9144 101.115 11.4996V9.33123C101.115 8.92055 101.19 8.57353 101.339 8.29017C101.492 8.00269 101.68 7.77066 101.903 7.59407C102.13 7.41337 102.376 7.28401 102.641 7.20598C102.905 7.12795 103.149 7.08894 103.372 7.08894H106.28C106.693 7.08894 107.045 7.16286 107.334 7.31071C107.624 7.45855 107.857 7.64541 108.035 7.87128C108.213 8.09304 108.341 8.33534 108.419 8.59817C108.502 8.86101 108.543 9.10536 108.543 9.33123V11.4996ZM106.931 9.34355C106.931 9.12179 106.875 8.95751 106.764 8.85074C106.652 8.74396 106.491 8.69058 106.28 8.69058H103.385C103.17 8.69058 103.006 8.74602 102.895 8.8569C102.783 8.96368 102.727 9.12179 102.727 9.33123V11.4996C102.727 11.709 102.783 11.8692 102.895 11.9801C103.006 12.091 103.17 12.1464 103.385 12.1464H106.28C106.499 12.1464 106.662 12.091 106.77 11.9801C106.877 11.8692 106.931 11.709 106.931 11.4996V9.34355Z" fill="#3FA6FA"/>
<path d="M115.785 8.69058H112.158C111.939 8.69058 111.773 8.74602 111.662 8.8569C111.55 8.96368 111.494 9.12179 111.494 9.33123V13.748H109.882V9.33123C109.882 9.05608 109.918 8.80967 109.988 8.59201C110.058 8.37436 110.151 8.18339 110.267 8.01912C110.387 7.85074 110.523 7.70906 110.676 7.59407C110.829 7.47498 110.988 7.37847 111.153 7.30455C111.323 7.23062 111.492 7.17724 111.662 7.14438C111.835 7.10742 111.997 7.08894 112.145 7.08894H115.785V8.69058Z" fill="#3FA6FA"/>
<path d="M122.946 8.69058H120.131V13.748H118.501V8.69058H116.405V7.08894H118.501V4.91441H120.131V7.08894H122.946V8.69058Z" fill="#3FA6FA"/>
<path d="M129.94 8.69058H126.294V7.08894H129.94V8.69058ZM129.94 5.80147H126.307C126.087 5.80147 125.922 5.85691 125.811 5.9678C125.699 6.07457 125.643 6.23268 125.643 6.44213V13.748H124.031V6.44213C124.031 6.16697 124.066 5.92057 124.137 5.70291C124.207 5.48525 124.3 5.29429 124.416 5.13002C124.535 4.96164 124.672 4.81996 124.825 4.70497C124.978 4.58587 125.137 4.48936 125.302 4.41544C125.472 4.34152 125.641 4.28813 125.811 4.25528C125.98 4.21832 126.141 4.19984 126.294 4.19984H129.94V5.80147Z" fill="#3FA6FA"/>
<path d="M138.267 11.4996C138.267 11.7748 138.231 12.0232 138.161 12.245C138.091 12.4626 137.998 12.6556 137.882 12.824C137.766 12.9883 137.632 13.13 137.479 13.2491C137.326 13.3641 137.165 13.4585 136.996 13.5324C136.83 13.6064 136.661 13.6618 136.487 13.6988C136.318 13.7316 136.156 13.748 136.004 13.748H133.096C132.872 13.748 132.629 13.709 132.364 13.631C132.1 13.553 131.854 13.4257 131.626 13.2491C131.403 13.0684 131.215 12.8363 131.062 12.553C130.913 12.2655 130.839 11.9144 130.839 11.4996V9.33123C130.839 8.92055 130.913 8.57353 131.062 8.29017C131.215 8.00269 131.403 7.77066 131.626 7.59407C131.854 7.41337 132.1 7.28401 132.364 7.20598C132.629 7.12795 132.872 7.08894 133.096 7.08894H136.004C136.417 7.08894 136.768 7.16286 137.058 7.31071C137.347 7.45855 137.58 7.64541 137.758 7.87128C137.936 8.09304 138.064 8.33534 138.143 8.59817C138.225 8.86101 138.267 9.10536 138.267 9.33123V11.4996ZM136.655 9.34355C136.655 9.12179 136.599 8.95751 136.487 8.85074C136.376 8.74396 136.214 8.69058 136.004 8.69058H133.108C132.893 8.69058 132.73 8.74602 132.618 8.8569C132.507 8.96368 132.451 9.12179 132.451 9.33123V11.4996C132.451 11.709 132.507 11.8692 132.618 11.9801C132.73 12.091 132.893 12.1464 133.108 12.1464H136.004C136.223 12.1464 136.386 12.091 136.493 11.9801C136.601 11.8692 136.655 11.709 136.655 11.4996V9.34355Z" fill="#3FA6FA"/>
<path d="M142.588 13.748H141.869C141.637 13.748 141.389 13.709 141.125 13.631C140.864 13.553 140.621 13.4257 140.393 13.2491C140.166 13.0684 139.978 12.8363 139.829 12.553C139.68 12.2655 139.606 11.9144 139.606 11.4996V4.27376H141.218V11.4996C141.218 11.6967 141.28 11.8548 141.404 11.9739C141.528 12.0889 141.683 12.1464 141.869 12.1464H142.588V13.748Z" fill="#3FA6FA"/>
<path d="M145.26 5.72139H143.648V4.27376H145.26V5.72139ZM145.26 13.748H143.648V7.08894H145.26V13.748Z" fill="#3FA6FA"/>
<path d="M154.102 11.4996C154.102 11.7748 154.067 12.0232 153.996 12.245C153.926 12.4626 153.833 12.6556 153.717 12.824C153.602 12.9883 153.467 13.13 153.314 13.2491C153.161 13.3641 153 13.4585 152.831 13.5324C152.665 13.6064 152.496 13.6618 152.322 13.6988C152.153 13.7316 151.992 13.748 151.839 13.748H148.931C148.708 13.748 148.464 13.709 148.199 13.631C147.935 13.553 147.689 13.4257 147.461 13.2491C147.238 13.0684 147.05 12.8363 146.897 12.553C146.748 12.2655 146.674 11.9144 146.674 11.4996V9.33123C146.674 8.92055 146.748 8.57353 146.897 8.29017C147.05 8.00269 147.238 7.77066 147.461 7.59407C147.689 7.41337 147.935 7.28401 148.199 7.20598C148.464 7.12795 148.708 7.08894 148.931 7.08894H151.839C152.252 7.08894 152.603 7.16286 152.893 7.31071C153.182 7.45855 153.416 7.64541 153.593 7.87128C153.771 8.09304 153.899 8.33534 153.978 8.59817C154.06 8.86101 154.102 9.10536 154.102 9.33123V11.4996ZM152.49 9.34355C152.49 9.12179 152.434 8.95751 152.322 8.85074C152.211 8.74396 152.049 8.69058 151.839 8.69058H148.943C148.728 8.69058 148.565 8.74602 148.453 8.8569C148.342 8.96368 148.286 9.12179 148.286 9.33123V11.4996C148.286 11.709 148.342 11.8692 148.453 11.9801C148.565 12.091 148.728 12.1464 148.943 12.1464H151.839C152.058 12.1464 152.221 12.091 152.328 11.9801C152.436 11.8692 152.49 11.709 152.49 11.4996V9.34355Z" fill="#3FA6FA"/>
</svg>
