<svg width="215" height="22" viewBox="0 0 215 22" fill="none" xmlns="http://www.w3.org/2000/svg">
<path d="M19.1821 6.72607C19.1821 7.5214 19.084 8.23183 18.8877 8.85737C18.6913 9.4829 18.4236 10.0369 18.0845 10.5195C17.7543 10.9931 17.3706 11.3997 16.9333 11.7393C16.496 12.0789 16.0364 12.3604 15.5545 12.5838C15.0816 12.7982 14.5997 12.9546 14.1088 13.0529C13.627 13.1512 13.1718 13.2004 12.7435 13.2004L20.0121 19.487H14.6309L7.37569 13.2004H4.87251V9.71524H12.7435C13.1808 9.6795 13.5779 9.59014 13.9348 9.44716C14.3007 9.29524 14.6131 9.09418 14.8719 8.84396C15.1396 8.59375 15.3448 8.29438 15.4876 7.94587C15.6304 7.58842 15.7018 7.18182 15.7018 6.72607V4.52776C15.7018 4.33116 15.675 4.18371 15.6215 4.08541C15.5768 3.97818 15.5144 3.90222 15.4341 3.85754C15.3627 3.80392 15.2824 3.77265 15.1931 3.76371C15.1128 3.75477 15.0369 3.75031 14.9656 3.75031H3.48036V19.487H0V2.02114C0 1.77987 0.04462 1.55199 0.13386 1.33752C0.2231 1.12305 0.343574 0.935391 0.495282 0.774539C0.655914 0.613686 0.843318 0.488579 1.05749 0.399217C1.27167 0.309854 1.50369 0.265173 1.75357 0.265173H14.9656C15.7419 0.265173 16.3979 0.408153 16.9333 0.694113C17.4687 0.971136 17.9016 1.32412 18.2317 1.75306C18.5709 2.17306 18.8118 2.62881 18.9546 3.1203C19.1063 3.61179 19.1821 4.07201 19.1821 4.50095V6.72607Z" fill="white"/>
<path d="M41.51 19.487H38.0296V14.7687H25.7948V19.487H22.3145V9.8761C22.3145 8.47311 22.5554 7.18182 23.0373 6.00224C23.5192 4.82265 24.1885 3.80839 25.0452 2.95945C25.9019 2.11051 26.9148 1.44922 28.0838 0.975604C29.2529 0.501983 30.529 0.265173 31.9122 0.265173H39.7564C39.9974 0.265173 40.2249 0.309854 40.4391 0.399217C40.6533 0.488579 40.8407 0.613686 41.0013 0.774539C41.162 0.935391 41.2869 1.12305 41.3761 1.33752C41.4654 1.55199 41.51 1.77987 41.51 2.02114V19.487ZM25.7948 11.2836H38.0296V3.75031H31.9122C31.8051 3.75031 31.5776 3.76818 31.2295 3.80392C30.8904 3.83073 30.4933 3.90669 30.0382 4.0318C29.592 4.1569 29.119 4.34903 28.6193 4.60818C28.1195 4.86734 27.6599 5.22479 27.2405 5.68053C26.8211 6.13628 26.4731 6.7082 26.1964 7.39629C25.9287 8.07545 25.7948 8.90205 25.7948 9.8761V11.2836Z" fill="white"/>
<path d="M64.7481 17.9991C64.7481 18.2494 64.699 18.4817 64.6009 18.6962C64.5116 18.9106 64.3867 19.0983 64.2261 19.2591C64.0743 19.4111 63.8914 19.5317 63.6772 19.6211C63.463 19.7104 63.2355 19.7551 62.9945 19.7551C62.7804 19.7551 62.5617 19.7149 62.3386 19.6345C62.1244 19.554 61.9326 19.4245 61.763 19.2457L49.0463 5.94862V19.487H45.566V1.75306C45.566 1.39561 45.6641 1.0739 45.8605 0.787943C46.0657 0.493047 46.3245 0.274109 46.6368 0.13113C46.967 -0.00291399 47.3061 -0.0341908 47.6542 0.0372991C48.0022 0.0998527 48.3012 0.260705 48.551 0.519856L61.2677 13.8036V0.265173H64.7481V17.9991Z" fill="white"/>
<path d="M88.9232 19.487H83.9838L76.153 11.6321H73.7033V8.12013H76.153L83.9838 0.265173H88.9232L79.0577 9.8761L88.9232 19.487ZM72.3112 19.487H68.8308V0.265173H72.3112V19.487Z" fill="white"/>
<path d="M109.551 13.8304C109.551 14.5185 109.462 15.1395 109.283 15.6936C109.114 16.2387 108.886 16.7213 108.601 17.1413C108.315 17.5613 107.98 17.9187 107.597 18.2136C107.213 18.5085 106.816 18.7498 106.405 18.9374C105.995 19.1251 105.575 19.2636 105.147 19.353C104.728 19.4423 104.331 19.487 103.956 19.487H90.5295V16.0019H103.956C104.625 16.0019 105.143 15.8053 105.508 15.4121C105.883 15.0189 106.071 14.4917 106.071 13.8304C106.071 13.5087 106.022 13.2138 105.923 12.9457C105.825 12.6776 105.683 12.4453 105.495 12.2487C105.317 12.0521 105.094 11.9002 104.826 11.7929C104.567 11.6857 104.277 11.6321 103.956 11.6321H95.9509C95.3887 11.6321 94.7818 11.5338 94.1304 11.3372C93.4789 11.1316 92.8721 10.8055 92.3099 10.3587C91.7566 9.91184 91.2925 9.32652 90.9177 8.60268C90.5519 7.87885 90.3689 6.99416 90.3689 5.94862C90.3689 4.90308 90.5519 4.02286 90.9177 3.30796C91.2925 2.58413 91.7566 1.9988 92.3099 1.55199C92.8721 1.09624 93.4789 0.770071 94.1304 0.573473C94.7818 0.36794 95.3887 0.265173 95.9509 0.265173H107.797V3.75031H95.9509C95.2905 3.75031 94.7729 3.95137 94.3981 4.3535C94.0322 4.75563 93.8493 5.28734 93.8493 5.94862C93.8493 6.61884 94.0322 7.15054 94.3981 7.54374C94.7729 7.928 95.2905 8.12013 95.9509 8.12013H103.956H103.982C104.357 8.12906 104.754 8.18268 105.174 8.28098C105.593 8.37034 106.008 8.51332 106.419 8.70992C106.838 8.90652 107.235 9.15673 107.61 9.46056C107.985 9.75546 108.315 10.1129 108.601 10.5329C108.895 10.9529 109.127 11.4355 109.297 11.9806C109.466 12.5257 109.551 13.1423 109.551 13.8304Z" fill="white"/>
<path d="M120.379 17.4944C120.379 17.7159 120.334 17.9251 120.243 18.122C120.16 18.3107 120.045 18.4789 119.896 18.6266C119.756 18.7661 119.586 18.8768 119.388 18.9589C119.198 19.0409 118.996 19.0819 118.781 19.0819C118.558 19.0819 118.348 19.0409 118.15 18.9589C117.96 18.8768 117.79 18.7661 117.642 18.6266C117.501 18.4789 117.39 18.3107 117.307 18.122C117.225 17.9251 117.183 17.7159 117.183 17.4944C117.183 17.2811 117.225 17.0801 117.307 16.8914C117.39 16.6945 117.501 16.5263 117.642 16.3868C117.79 16.2391 117.96 16.1243 118.15 16.0422C118.348 15.952 118.558 15.9069 118.781 15.9069C118.996 15.9069 119.198 15.952 119.388 16.0422C119.586 16.1243 119.756 16.2391 119.896 16.3868C120.045 16.5263 120.16 16.6945 120.243 16.8914C120.334 17.0801 120.379 17.2811 120.379 17.4944Z" fill="#007DF0"/>
<path d="M138.802 15.9818C138.802 16.3642 138.753 16.7095 138.655 17.0177C138.558 17.3201 138.429 17.5884 138.268 17.8224C138.107 18.0507 137.92 18.2476 137.708 18.4131C137.495 18.5729 137.271 18.7042 137.036 18.8069C136.806 18.9096 136.573 18.9867 136.338 19.0381C136.102 19.0837 135.878 19.1065 135.666 19.1065H131.624V16.8807H135.666C135.964 16.8807 136.188 16.8036 136.338 16.6495C136.487 16.4954 136.562 16.2728 136.562 15.9818V12.9854C136.562 12.6772 136.484 12.4489 136.329 12.3005C136.18 12.1521 135.958 12.0779 135.666 12.0779H131.642C131.337 12.0779 131.107 12.155 130.952 12.3091C130.797 12.4575 130.72 12.6772 130.72 12.9683V22.0002H128.479V12.9683C128.479 12.5859 128.528 12.2434 128.626 11.9409C128.723 11.6385 128.853 11.3731 129.013 11.1448C129.18 10.9108 129.37 10.7139 129.582 10.5541C129.795 10.3885 130.016 10.2544 130.246 10.1517C130.481 10.049 130.717 9.97476 130.952 9.9291C131.193 9.87773 131.418 9.85205 131.624 9.85205H135.666C136.05 9.85205 136.395 9.90056 136.7 9.99759C137.004 10.0946 137.271 10.223 137.501 10.3828C137.736 10.5426 137.935 10.7281 138.095 10.9393C138.262 11.1505 138.397 11.3731 138.5 11.6071C138.604 11.8354 138.678 12.0665 138.724 12.3005C138.776 12.5345 138.802 12.7571 138.802 12.9683V15.9818Z" fill="#007DF0"/>
<path d="M150.848 15.9818C150.848 16.3642 150.799 16.7095 150.702 17.0177C150.604 17.3201 150.475 17.5884 150.314 17.8224C150.153 18.0507 149.966 18.2476 149.754 18.4131C149.541 18.5729 149.317 18.7042 149.082 18.8069C148.852 18.9096 148.616 18.9867 148.375 19.0381C148.14 19.0837 147.916 19.1065 147.703 19.1065H143.662C143.352 19.1065 143.013 19.0523 142.645 18.9439C142.277 18.8354 141.936 18.6585 141.62 18.4131C141.309 18.162 141.048 17.8395 140.836 17.4457C140.629 17.0462 140.525 16.5582 140.525 15.9818V12.9683C140.525 12.3975 140.629 11.9153 140.836 11.5215C141.048 11.1219 141.309 10.7995 141.62 10.5541C141.936 10.3029 142.277 10.1231 142.645 10.0147C143.013 9.90627 143.352 9.85205 143.662 9.85205H147.703C148.277 9.85205 148.766 9.95478 149.168 10.1602C149.57 10.3657 149.894 10.6254 150.141 10.9393C150.388 11.2475 150.567 11.5842 150.676 11.9495C150.791 12.3148 150.848 12.6544 150.848 12.9683V15.9818ZM148.608 12.9854C148.608 12.6772 148.53 12.4489 148.375 12.3005C148.22 12.1521 147.996 12.0779 147.703 12.0779H143.679C143.38 12.0779 143.153 12.155 142.998 12.3091C142.843 12.4575 142.766 12.6772 142.766 12.9683V15.9818C142.766 16.2728 142.843 16.4954 142.998 16.6495C143.153 16.8036 143.38 16.8807 143.679 16.8807H147.703C148.007 16.8807 148.234 16.8036 148.384 16.6495C148.533 16.4954 148.608 16.2728 148.608 15.9818V12.9854Z" fill="#007DF0"/>
<path d="M160.912 12.0779H155.872C155.567 12.0779 155.337 12.155 155.182 12.3091C155.027 12.4575 154.95 12.6772 154.95 12.9683V19.1065H152.709V12.9683C152.709 12.5859 152.758 12.2434 152.856 11.9409C152.953 11.6385 153.083 11.3731 153.243 11.1448C153.41 10.9108 153.6 10.7139 153.812 10.5541C154.025 10.3885 154.246 10.2544 154.476 10.1517C154.711 10.049 154.947 9.97476 155.182 9.9291C155.423 9.87773 155.647 9.85205 155.854 9.85205H160.912V12.0779Z" fill="#007DF0"/>
<path d="M170.864 12.0779H166.953V19.1065H164.686V12.0779H161.774V9.85205H164.686V6.83H166.953V9.85205H170.864V12.0779Z" fill="#007DF0"/>
<path d="M180.584 12.0779H175.517V9.85205H180.584V12.0779ZM180.584 8.06279H175.535C175.23 8.06279 175 8.13984 174.845 8.29394C174.69 8.44233 174.613 8.66206 174.613 8.95314V19.1065H172.372V8.95314C172.372 8.57074 172.421 8.2283 172.519 7.92581C172.617 7.62332 172.746 7.35793 172.907 7.12963C173.073 6.89563 173.263 6.69873 173.475 6.53892C173.688 6.37341 173.909 6.23928 174.139 6.13655C174.374 6.03382 174.61 5.95962 174.845 5.91396C175.081 5.8626 175.305 5.83691 175.517 5.83691H180.584V8.06279Z" fill="#007DF0"/>
<path d="M192.156 15.9818C192.156 16.3642 192.107 16.7095 192.01 17.0177C191.912 17.3201 191.783 17.5884 191.622 17.8224C191.461 18.0507 191.274 18.2476 191.062 18.4131C190.849 18.5729 190.625 18.7042 190.39 18.8069C190.16 18.9096 189.924 18.9867 189.683 19.0381C189.448 19.0837 189.224 19.1065 189.011 19.1065H184.97C184.66 19.1065 184.321 19.0523 183.953 18.9439C183.585 18.8354 183.244 18.6585 182.928 18.4131C182.618 18.162 182.356 17.8395 182.144 17.4457C181.937 17.0462 181.833 16.5582 181.833 15.9818V12.9683C181.833 12.3975 181.937 11.9153 182.144 11.5215C182.356 11.1219 182.618 10.7995 182.928 10.5541C183.244 10.3029 183.585 10.1231 183.953 10.0147C184.321 9.90627 184.66 9.85205 184.97 9.85205H189.011C189.586 9.85205 190.074 9.95478 190.476 10.1602C190.878 10.3657 191.203 10.6254 191.45 10.9393C191.697 11.2475 191.875 11.5842 191.984 11.9495C192.099 12.3148 192.156 12.6544 192.156 12.9683V15.9818ZM189.916 12.9854C189.916 12.6772 189.838 12.4489 189.683 12.3005C189.528 12.1521 189.304 12.0779 189.011 12.0779H184.987C184.688 12.0779 184.461 12.155 184.306 12.3091C184.151 12.4575 184.074 12.6772 184.074 12.9683V15.9818C184.074 16.2728 184.151 16.4954 184.306 16.6495C184.461 16.8036 184.688 16.8807 184.987 16.8807H189.011C189.316 16.8807 189.542 16.8036 189.692 16.6495C189.841 16.4954 189.916 16.2728 189.916 15.9818V12.9854Z" fill="#007DF0"/>
<path d="M198.162 19.1065H197.162C196.841 19.1065 196.496 19.0523 196.128 18.9439C195.767 18.8354 195.428 18.6585 195.112 18.4131C194.796 18.162 194.534 17.8395 194.328 17.4457C194.121 17.0462 194.017 16.5582 194.017 15.9818V5.93965H196.258V15.9818C196.258 16.2557 196.344 16.4755 196.516 16.641C196.688 16.8008 196.904 16.8807 197.162 16.8807H198.162V19.1065Z" fill="#007DF0"/>
<path d="M201.876 7.95149H199.635V5.93965H201.876V7.95149ZM201.876 19.1065H199.635V9.85205H201.876V19.1065Z" fill="#007DF0"/>
<path d="M214.163 15.9818C214.163 16.3642 214.114 16.7095 214.017 17.0177C213.919 17.3201 213.79 17.5884 213.629 17.8224C213.468 18.0507 213.281 18.2476 213.069 18.4131C212.856 18.5729 212.632 18.7042 212.397 18.8069C212.167 18.9096 211.931 18.9867 211.69 19.0381C211.455 19.0837 211.23 19.1065 211.018 19.1065H206.977C206.667 19.1065 206.328 19.0523 205.96 18.9439C205.592 18.8354 205.251 18.6585 204.935 18.4131C204.624 18.162 204.363 17.8395 204.15 17.4457C203.944 17.0462 203.84 16.5582 203.84 15.9818V12.9683C203.84 12.3975 203.944 11.9153 204.15 11.5215C204.363 11.1219 204.624 10.7995 204.935 10.5541C205.251 10.3029 205.592 10.1231 205.96 10.0147C206.328 9.90627 206.667 9.85205 206.977 9.85205H211.018C211.592 9.85205 212.081 9.95478 212.483 10.1602C212.885 10.3657 213.209 10.6254 213.456 10.9393C213.703 11.2475 213.882 11.5842 213.991 11.9495C214.106 12.3148 214.163 12.6544 214.163 12.9683V15.9818ZM211.923 12.9854C211.923 12.6772 211.845 12.4489 211.69 12.3005C211.535 12.1521 211.311 12.0779 211.018 12.0779H206.994C206.695 12.0779 206.468 12.155 206.313 12.3091C206.158 12.4575 206.081 12.6772 206.081 12.9683V15.9818C206.081 16.2728 206.158 16.4954 206.313 16.6495C206.468 16.8036 206.695 16.8807 206.994 16.8807H211.018C211.322 16.8807 211.549 16.8036 211.699 16.6495C211.848 16.4954 211.923 16.2728 211.923 15.9818V12.9854Z" fill="#007DF0"/>
</svg>
